<?xml version="1.0" encoding="utf-8"?>
<!-- Generator: Adobe Illustrator 25.2.3, SVG Export Plug-In . SVG Version: 6.00 Build 0)  -->
<svg version="1.1" id="Layer_1" xmlns="http://www.w3.org/2000/svg" xmlns:xlink="http://www.w3.org/1999/xlink" x="0px" y="0px"
	 viewBox="0 0 600 400" enable-background="new 0 0 600 400" xml:space="preserve">
<path fill="#FFFFFF" d="M0,0v388.861h310.473c27.687,0,52.942-10.509,71.11-29.576c16.588-17.407,26.1-40.631,26.1-63.725V0H0z"/>
<path fill="#593289" d="M0,0v388.861h310.473c27.687,0,52.942-10.509,71.11-29.576c16.587-17.407,26.1-40.631,26.1-63.725V0H0z
	 M403.04,4.634l0.013,169.853H4.624V4.634H403.04z"/>
<path fill="#593289" d="M80.08,58.114c-19.703,0-31.112,11.944-35.452,17.698V32.757c0-2.293-1.877-4.161-4.167-4.161
	c-2.295,0-4.159,1.867-4.159,4.161v70.528c0,20.496,16.742,42.61,43.784,42.61c26.203,0,43.784-22.845,43.784-44.19
	C123.871,74.783,101.137,58.114,80.08,58.114z M79.964,137.132c-19.418,0-35.212-15.888-35.212-35.42
	c0-19.524,15.794-35.413,35.212-35.413c19.419,0,35.22,15.888,35.22,35.413C115.184,121.243,99.383,137.132,79.964,137.132z
	 M216.766,102.008c0,2.103-1.348,4.225-4.334,4.225h-45.673c-2.38,0-4.315-1.941-4.315-4.325c0-2.385,1.922-4.327,4.282-4.327
	l41.159,0.009c-2.199-17.681-17.039-30.865-35.014-30.865c-19.451,0-35.283,15.829-35.283,35.283
	c0,19.454,15.832,35.284,35.283,35.284c12.389,0,23.656-6.323,30.138-16.913c0.652-0.987,1.625-1.638,2.754-1.861
	c1.135-0.225,2.277,0.006,3.212,0.645c1.967,1.31,2.529,3.967,1.245,5.917c-8.081,13.034-22.044,20.815-37.349,20.815
	c-24.197,0-43.886-19.686-43.886-43.887c0-24.197,19.69-43.88,43.886-43.88C197.07,58.128,216.766,77.811,216.766,102.008z
	 M241.279,138.795v0.035c-0.246,3.331-3.753,7.043-8.397,7.065h-0.045c-4.695-0.022-8.133-3.66-8.403-7.061V65.441
	c0.271-3.473,3.708-7.114,8.403-7.133h0.045c4.644,0.023,8.151,3.735,8.397,7.066V138.795z M352.761,143.535
	c-4.127,1.676-7.958,2.36-11.454,2.36c-11.531,0-19.335-7.468-21.811-11.247c-3.134-4.753-32.601-51.304-33.859-53.364
	c-0.084-0.151-3.282-6.769-9.596-6.407c-10.925,0.986-10.39,10.113-10.357,10.5v52.845c0,4.15-3.773,7.656-8.249,7.675h-0.039
	c-4.875-0.012-8.178-3.508-8.442-6.743V83.931c0-0.183,0.393-17.135,16.568-23.778c16.491-6.133,29.074,3.089,33.504,10.787
	l33.729,53.138c0.207,0.335,4.934,7.959,14.131,3.58c4.404-2.093,5.392-6.806,5.392-8.293v-54.1c0.271-3.402,3.747-7.101,8.326-7.12
	h0.019c4.644,0.017,8.042,3.634,8.319,7.008v54.16C368.949,119.427,369.761,136.612,352.761,143.535z"/>
<path fill="#FFFFFF" d="M59.312,227.889c-5.856,0-10.074-1.257-12.544-3.747c-2.096-2.115-2.102-4.341-2.102-4.498
	c0-0.049-0.323-5.054,3.134-8.772c2.521-2.711,6.41-4.086,11.557-4.086c4.914,0,8.642,1.36,11.118,4.044
	c3.76,4.082,3.321,9.945,3.308,10.064c0,2.293,1.877,4.157,4.185,4.157c2.296,0,4.167-1.864,4.167-4.157
	c0-22.186-21.895-22.44-22.824-22.44h-0.11c-22.25,0-22.889,18.89-22.889,21.047c0,6.278,4.85,16.906,23.044,16.906
	c6.14,0,10.544,1.329,13.092,3.954c2.141,2.206,2.309,4.676,2.283,5.785c0.039,1.141-0.065,5.108-3.05,8.194
	c-2.606,2.679-6.701,4.044-12.182,4.044h-0.091c-4.934-0.017-8.733-1.396-11.28-4.105c-2.882-3.057-3.463-7.145-3.353-9.12
	c0-2.292-1.896-4.156-4.225-4.156c-2.334,0-4.237,1.864-4.237,4.137c-0.141,5.675,1.916,10.979,5.779,14.949
	c4.263,4.366,10.364,6.771,17.188,6.771c17.697,0,23.979-11.157,23.979-20.712C83.258,235.061,73.854,227.889,59.312,227.889z
	 M344.993,227.893c-5.849,0-10.073-1.261-12.543-3.75c-2.089-2.115-2.096-4.341-2.096-4.498c-0.006-0.049-0.329-5.054,3.134-8.772
	c2.516-2.711,6.405-4.086,11.564-4.086c4.896,0,8.629,1.364,11.106,4.044c3.766,4.085,3.321,9.947,3.315,10.066
	c0,2.293,1.877,4.157,4.185,4.157c2.289,0,4.16-1.864,4.16-4.157c0-22.185-21.889-22.443-22.824-22.443h-0.103
	c-22.256,0-22.895,18.893-22.895,21.047c0,6.282,4.85,16.906,23.056,16.906c6.127,0,10.532,1.332,13.08,3.957
	c2.147,2.203,2.309,4.672,2.289,5.784c0.038,1.139-0.065,5.108-3.057,8.191c-2.593,2.683-6.695,4.047-12.183,4.047
	c0,0-0.065,0-0.09,0c-4.934-0.016-8.726-1.396-11.28-4.105c-2.883-3.06-3.458-7.148-3.348-9.119c0-2.292-1.902-4.16-4.231-4.16
	c-2.335,0-4.231,1.867-4.231,4.14c-0.141,5.672,1.915,10.98,5.772,14.946c4.27,4.366,10.364,6.775,17.194,6.775
	c17.697,0,23.979-11.157,23.979-20.712C368.947,235.061,359.537,227.893,344.993,227.893z M114.929,198.456
	c-13.492,0-22.907,9.461-22.907,22.998l0.045,39.84c0,2.357,1.914,4.276,4.263,4.276c2.36,0,4.276-1.919,4.276-4.276v-16.88h14.323
	c12.66,0,22.96-10.3,22.96-22.966C137.889,208.768,127.589,198.456,114.929,198.456z M114.853,235.977H100.6l-0.026-14.552
	c0-8.774,5.74-14.669,14.279-14.669c8.074,0,14.632,6.572,14.632,14.654C129.485,229.441,122.926,235.977,114.853,235.977z
	 M178.687,198.456c-18.859,0-34.208,15.349-34.208,34.213c0,18.854,15.349,34.194,34.208,34.194
	c18.851,0,34.194-15.34,34.194-34.194C212.881,213.805,197.538,198.456,178.687,198.456z M178.687,258.565
	c-14.285,0-25.913-11.615-25.913-25.897c0-14.288,11.628-25.913,25.913-25.913c14.278,0,25.887,11.625,25.887,25.913
	C204.574,246.95,192.965,258.565,178.687,258.565z M250.983,243.033c8.784-3.457,14.608-11.951,14.608-21.454
	c0-12.749-10.345-23.123-23.075-23.123c-13.563,0-23.037,9.512-23.037,23.14l0.038,39.708c0,2.353,1.922,4.269,4.295,4.269
	c2.367,0,4.289-1.916,4.289-4.269v-16.633h13.641l11.376,18.557c0.574,1.003,1.509,1.721,2.626,2.025
	c1.129,0.313,2.289,0.158,3.295-0.417c1.012-0.583,1.734-1.525,2.038-2.657c0.296-1.116,0.149-2.276-0.439-3.282L250.983,243.033z
	 M228.095,236.203l-0.027-14.644c0-8.832,5.773-14.765,14.376-14.765c8.113,0,14.717,6.617,14.717,14.743
	c0,8.087-6.604,14.666-14.717,14.666H228.095z M317.217,204.066c0,2.371-1.915,4.295-4.27,4.295h-14.852v52.913
	c0,2.357-1.928,4.273-4.302,4.273c-2.367,0-4.295-1.916-4.295-4.273l-0.006-52.913h-14.853c-2.348,0-4.27-1.925-4.27-4.295
	c0-2.366,1.922-4.294,4.27-4.294h38.309C315.302,199.772,317.217,201.7,317.217,204.066z"/>
<g>
	<g>
		<path fill="#593289" d="M599.948,4.837h-146.81h-0.119c-24.253,0-39.258,19.286-39.258,37.658v131.924h0.111h146.811h0.119
			c24.253,0,39.257-19.295,39.257-37.658V4.837H599.948z"/>
	</g>
</g>
<g>
	<g>
		<path fill="#FFFFFF" d="M528.674,52.26c0-10.882-5.526-17.632-14.435-17.632h-21.384l-7.708,20.275h24.249v89.725h19.277V52.26z"
			/>
	</g>
</g>
<g>
	<g>
		<path fill="#FFFFFF" d="M142.275,332.093h-0.309l-16.959-25.4v38.715h-9.368V291.21h10.144l16.492,25.627l16.492-25.627h10.144
			v54.198h-9.526v-38.867L142.275,332.093z"/>
		<path fill="#FFFFFF" d="M234.76,345.408h-10.068l-5.497-13.088h-25.627l-5.573,13.088h-9.759l23.85-54.583h8.826L234.76,345.408z
			 M206.346,302.205l-9.293,21.68h18.66L206.346,302.205z"/>
		<path fill="#FFFFFF" d="M278.386,345.408l-14.248-20.52l-14.323,20.52h-10.92l19.746-27.562l-18.97-26.636h11.228l13.472,19.436
			l13.548-19.436h10.919l-18.894,26.478l19.669,27.72H278.386z"/>
	</g>
</g>
</svg>
